<mxfile host="app.diagrams.net" modified="2022-06-16T09:04:54.403Z" agent="5.0 (Windows NT 10.0; Win64; x64) AppleWebKit/537.36 (KHTML, like Gecko) Chrome/102.0.5005.63 Safari/537.36" etag="gE-wRsjozE56ShR68I15" version="20.0.1" type="github">
  <diagram id="xab_-WxCl95ADfNcL_-K" name="Page-1">
    <mxGraphModel dx="1182" dy="732" grid="1" gridSize="10" guides="1" tooltips="1" connect="1" arrows="1" fold="1" page="1" pageScale="1" pageWidth="827" pageHeight="1169" math="0" shadow="0">
      <root>
        <mxCell id="0" />
        <mxCell id="1" parent="0" />
        <mxCell id="X01GNhUwHlDNzpuAlYnD-28" style="edgeStyle=orthogonalEdgeStyle;rounded=1;comic=1;orthogonalLoop=1;jettySize=auto;html=1;exitX=0.5;exitY=1;exitDx=0;exitDy=0;entryX=0.5;entryY=0;entryDx=0;entryDy=0;fontSize=16;shadow=0;sketch=1;" edge="1" parent="1" source="X01GNhUwHlDNzpuAlYnD-12" target="X01GNhUwHlDNzpuAlYnD-22">
          <mxGeometry relative="1" as="geometry" />
        </mxCell>
        <mxCell id="X01GNhUwHlDNzpuAlYnD-12" value="&lt;span style=&quot;color: rgb(51, 51, 51); font-size: 16px;&quot;&gt;socket()&lt;/span&gt;" style="rounded=1;whiteSpace=wrap;html=1;strokeWidth=2;fillWeight=4;hachureGap=8;hachureAngle=45;fillColor=#f5f5f5;fontSize=12;strokeColor=#666666;shadow=0;glass=0;sketch=1;fillStyle=hachure;fontColor=#333333;" vertex="1" parent="1">
          <mxGeometry x="470" y="200" width="120" height="60" as="geometry" />
        </mxCell>
        <mxCell id="X01GNhUwHlDNzpuAlYnD-29" style="edgeStyle=orthogonalEdgeStyle;rounded=1;comic=1;orthogonalLoop=1;jettySize=auto;html=1;exitX=0.5;exitY=1;exitDx=0;exitDy=0;entryX=0.5;entryY=0;entryDx=0;entryDy=0;fontSize=16;shadow=0;sketch=1;" edge="1" parent="1" source="X01GNhUwHlDNzpuAlYnD-22" target="X01GNhUwHlDNzpuAlYnD-23">
          <mxGeometry relative="1" as="geometry" />
        </mxCell>
        <mxCell id="X01GNhUwHlDNzpuAlYnD-22" value="&lt;span style=&quot;color: rgb(51, 51, 51); font-size: 16px;&quot;&gt;bind()&lt;/span&gt;" style="rounded=1;whiteSpace=wrap;html=1;strokeWidth=2;fillWeight=4;hachureGap=8;hachureAngle=45;fillColor=#dae8fc;fontSize=16;strokeColor=#6c8ebf;shadow=0;glass=0;sketch=1;fillStyle=hachure;" vertex="1" parent="1">
          <mxGeometry x="469" y="280" width="120" height="60" as="geometry" />
        </mxCell>
        <mxCell id="X01GNhUwHlDNzpuAlYnD-30" style="edgeStyle=orthogonalEdgeStyle;rounded=1;comic=1;orthogonalLoop=1;jettySize=auto;html=1;exitX=0.5;exitY=1;exitDx=0;exitDy=0;entryX=0.5;entryY=0;entryDx=0;entryDy=0;fontSize=16;shadow=0;sketch=1;" edge="1" parent="1" source="X01GNhUwHlDNzpuAlYnD-23" target="X01GNhUwHlDNzpuAlYnD-24">
          <mxGeometry relative="1" as="geometry" />
        </mxCell>
        <mxCell id="X01GNhUwHlDNzpuAlYnD-23" value="&lt;span style=&quot;color: rgb(51, 51, 51); font-size: 16px;&quot;&gt;listen()&lt;/span&gt;" style="rounded=1;whiteSpace=wrap;html=1;strokeWidth=2;fillWeight=4;hachureGap=8;hachureAngle=45;fillColor=#d5e8d4;fontSize=16;strokeColor=#82b366;shadow=0;glass=0;sketch=1;fillStyle=hachure;" vertex="1" parent="1">
          <mxGeometry x="470" y="360" width="120" height="60" as="geometry" />
        </mxCell>
        <mxCell id="X01GNhUwHlDNzpuAlYnD-35" style="edgeStyle=orthogonalEdgeStyle;rounded=1;comic=1;orthogonalLoop=1;jettySize=auto;html=1;exitX=0.5;exitY=1;exitDx=0;exitDy=0;entryX=0.5;entryY=0;entryDx=0;entryDy=0;fontSize=16;shadow=0;sketch=1;" edge="1" parent="1" source="X01GNhUwHlDNzpuAlYnD-24" target="X01GNhUwHlDNzpuAlYnD-32">
          <mxGeometry relative="1" as="geometry" />
        </mxCell>
        <mxCell id="X01GNhUwHlDNzpuAlYnD-24" value="&lt;span style=&quot;color: rgb(51, 51, 51); font-size: 15px;&quot;&gt;accept()&lt;/span&gt;" style="rounded=1;whiteSpace=wrap;html=1;strokeWidth=2;fillWeight=4;hachureGap=8;hachureAngle=45;fillColor=#ffe6cc;fontSize=15;strokeColor=#d79b00;shadow=0;glass=0;sketch=1;fillStyle=hachure;" vertex="1" parent="1">
          <mxGeometry x="470" y="440" width="120" height="60" as="geometry" />
        </mxCell>
        <mxCell id="X01GNhUwHlDNzpuAlYnD-27" style="edgeStyle=orthogonalEdgeStyle;rounded=1;comic=1;orthogonalLoop=1;jettySize=auto;html=1;exitX=0.5;exitY=1;exitDx=0;exitDy=0;entryX=0.5;entryY=0;entryDx=0;entryDy=0;fontSize=16;shadow=0;sketch=1;" edge="1" parent="1" source="X01GNhUwHlDNzpuAlYnD-25" target="X01GNhUwHlDNzpuAlYnD-26">
          <mxGeometry relative="1" as="geometry" />
        </mxCell>
        <mxCell id="X01GNhUwHlDNzpuAlYnD-25" value="&lt;span style=&quot;color: rgb(51, 51, 51); font-size: 16px;&quot;&gt;socket()&lt;/span&gt;" style="rounded=1;whiteSpace=wrap;html=1;strokeWidth=2;fillWeight=4;hachureGap=8;hachureAngle=45;fillColor=#f5f5f5;fontSize=12;strokeColor=#666666;shadow=0;glass=0;sketch=1;fillStyle=hachure;fontColor=#333333;" vertex="1" parent="1">
          <mxGeometry x="239" y="360" width="120" height="60" as="geometry" />
        </mxCell>
        <mxCell id="X01GNhUwHlDNzpuAlYnD-31" style="edgeStyle=orthogonalEdgeStyle;rounded=1;comic=1;orthogonalLoop=1;jettySize=auto;html=1;exitX=1;exitY=0.5;exitDx=0;exitDy=0;entryX=0;entryY=0.5;entryDx=0;entryDy=0;fontSize=16;shadow=0;sketch=1;" edge="1" parent="1" source="X01GNhUwHlDNzpuAlYnD-26" target="X01GNhUwHlDNzpuAlYnD-24">
          <mxGeometry relative="1" as="geometry" />
        </mxCell>
        <mxCell id="X01GNhUwHlDNzpuAlYnD-40" style="edgeStyle=orthogonalEdgeStyle;rounded=1;comic=1;orthogonalLoop=1;jettySize=auto;html=1;exitX=0.5;exitY=1;exitDx=0;exitDy=0;entryX=0.5;entryY=0;entryDx=0;entryDy=0;fontSize=16;shadow=0;sketch=1;" edge="1" parent="1" source="X01GNhUwHlDNzpuAlYnD-26" target="X01GNhUwHlDNzpuAlYnD-33">
          <mxGeometry relative="1" as="geometry" />
        </mxCell>
        <mxCell id="X01GNhUwHlDNzpuAlYnD-26" value="&lt;span style=&quot;color: rgb(51, 51, 51); font-size: 16px;&quot;&gt;connect()&lt;/span&gt;" style="rounded=1;whiteSpace=wrap;html=1;strokeWidth=2;fillWeight=4;hachureGap=8;hachureAngle=45;fillColor=#ffe6cc;fontSize=12;strokeColor=#d79b00;shadow=0;glass=0;sketch=1;fillStyle=hachure;" vertex="1" parent="1">
          <mxGeometry x="239" y="440" width="120" height="60" as="geometry" />
        </mxCell>
        <mxCell id="X01GNhUwHlDNzpuAlYnD-43" style="edgeStyle=orthogonalEdgeStyle;rounded=1;comic=1;sketch=1;orthogonalLoop=1;jettySize=auto;html=1;exitX=0.5;exitY=1;exitDx=0;exitDy=0;entryX=0.5;entryY=0;entryDx=0;entryDy=0;shadow=0;fontSize=16;" edge="1" parent="1" source="X01GNhUwHlDNzpuAlYnD-32" target="X01GNhUwHlDNzpuAlYnD-34">
          <mxGeometry relative="1" as="geometry" />
        </mxCell>
        <mxCell id="X01GNhUwHlDNzpuAlYnD-32" value="&lt;span style=&quot;color: rgb(51, 51, 51); font-size: 16px;&quot;&gt;read()&lt;/span&gt;" style="rounded=1;whiteSpace=wrap;html=1;strokeWidth=2;fillWeight=4;hachureGap=8;hachureAngle=45;fillColor=#fff2cc;fontSize=12;strokeColor=#d6b656;shadow=0;glass=0;sketch=1;fillStyle=hachure;" vertex="1" parent="1">
          <mxGeometry x="469" y="520" width="120" height="60" as="geometry" />
        </mxCell>
        <mxCell id="X01GNhUwHlDNzpuAlYnD-37" style="edgeStyle=orthogonalEdgeStyle;rounded=1;comic=1;orthogonalLoop=1;jettySize=auto;html=1;exitX=1;exitY=0.5;exitDx=0;exitDy=0;entryX=0;entryY=0.5;entryDx=0;entryDy=0;fontSize=16;shadow=0;sketch=1;" edge="1" parent="1" source="X01GNhUwHlDNzpuAlYnD-33" target="X01GNhUwHlDNzpuAlYnD-32">
          <mxGeometry relative="1" as="geometry" />
        </mxCell>
        <mxCell id="X01GNhUwHlDNzpuAlYnD-41" style="edgeStyle=orthogonalEdgeStyle;rounded=1;comic=1;orthogonalLoop=1;jettySize=auto;html=1;exitX=0.5;exitY=1;exitDx=0;exitDy=0;entryX=0.5;entryY=0;entryDx=0;entryDy=0;fontSize=16;shadow=0;sketch=1;" edge="1" parent="1" source="X01GNhUwHlDNzpuAlYnD-33" target="X01GNhUwHlDNzpuAlYnD-36">
          <mxGeometry relative="1" as="geometry" />
        </mxCell>
        <mxCell id="X01GNhUwHlDNzpuAlYnD-33" value="&lt;span style=&quot;color: rgb(51, 51, 51); font-size: 16px;&quot;&gt;write&lt;/span&gt;&lt;span style=&quot;color: rgba(0, 0, 0, 0); font-family: monospace; font-size: 0px; text-align: start;&quot;&gt;%3CmxGraphModel%3E%3Croot%3E%3CmxCell%20id%3D%220%22%2F%3E%3CmxCell%20id%3D%221%22%20parent%3D%220%22%2F%3E%3CmxCell%20id%3D%222%22%20value%3D%22%26lt%3Bspan%20style%3D%26quot%3Bcolor%3A%20rgb(51%2C%2051%2C%2051)%3B%20font-size%3A%2016px%3B%26quot%3B%26gt%3Bread()%26lt%3B%2Fspan%26gt%3B%22%20style%3D%22rounded%3D1%3BwhiteSpace%3Dwrap%3Bhtml%3D1%3BstrokeWidth%3D2%3BfillWeight%3D4%3BhachureGap%3D8%3BhachureAngle%3D45%3BfillColor%3D%23f5f5f5%3BfontSize%3D12%3BstrokeColor%3D%23666666%3Bshadow%3D0%3Bglass%3D0%3Bsketch%3D1%3BfillStyle%3Dhachure%3BfontColor%3D%23333333%3B%22%20vertex%3D%221%22%20parent%3D%221%22%3E%3CmxGeometry%20x%3D%22239%22%20y%3D%22500%22%20width%3D%22120%22%20height%3D%2260%22%20as%3D%22geometry%22%2F%3E%3C%2FmxCell%3E%3C%2Froot%3E%3C%2FmxGraphModel%3E&lt;/span&gt;&lt;span style=&quot;color: rgb(51, 51, 51); font-size: 16px;&quot;&gt;()&lt;/span&gt;&lt;span style=&quot;color: rgba(0, 0, 0, 0); font-family: monospace; font-size: 0px; text-align: start;&quot;&gt;%3CmxGraphModel%3E%3Croot%3E%3CmxCell%20id%3D%220%22%2F%3E%3CmxCell%20id%3D%221%22%20parent%3D%220%22%2F%3E%3CmxCell%20id%3D%222%22%20value%3D%22%26lt%3Bspan%20style%3D%26quot%3Bcolor%3A%20rgb(51%2C%2051%2C%2051)%3B%20font-size%3A%2016px%3B%26quot%3B%26gt%3Bread()%26lt%3B%2Fspan%26gt%3B%22%20style%3D%22rounded%3D1%3BwhiteSpace%3Dwrap%3Bhtml%3D1%3BstrokeWidth%3D2%3BfillWeight%3D4%3BhachureGap%3D8%3BhachureAngle%3D45%3BfillColor%3D%23f5f5f5%3BfontSize%3D12%3BstrokeColor%3D%23666666%3Bshadow%3D0%3Bglass%3D0%3Bsketch%3D1%3BfillStyle%3Dhachure%3BfontColor%3D%23333333%3B%22%20vertex%3D%221%22%20parent%3D%221%22%3E%3CmxGeometry%20x%3D%22239%22%20y%3D%22500%22%20width%3D%22120%22%20height%3D%2260%22%20as%3D%22geometry%22%2F%3E%3C%2FmxCell%3E%3C%2Froot%3E%3C%2FmxGraphModel%3E&lt;/span&gt;" style="rounded=1;whiteSpace=wrap;html=1;strokeWidth=2;fillWeight=4;hachureGap=8;hachureAngle=45;fillColor=#e1d5e7;fontSize=12;strokeColor=#9673a6;shadow=0;glass=0;sketch=1;fillStyle=hachure;" vertex="1" parent="1">
          <mxGeometry x="239" y="520" width="120" height="60" as="geometry" />
        </mxCell>
        <mxCell id="X01GNhUwHlDNzpuAlYnD-38" style="edgeStyle=orthogonalEdgeStyle;rounded=1;comic=1;orthogonalLoop=1;jettySize=auto;html=1;exitX=0;exitY=0.5;exitDx=0;exitDy=0;entryX=1;entryY=0.5;entryDx=0;entryDy=0;fontSize=16;shadow=0;sketch=1;" edge="1" parent="1" source="X01GNhUwHlDNzpuAlYnD-34" target="X01GNhUwHlDNzpuAlYnD-36">
          <mxGeometry relative="1" as="geometry" />
        </mxCell>
        <mxCell id="X01GNhUwHlDNzpuAlYnD-45" style="edgeStyle=orthogonalEdgeStyle;rounded=1;comic=1;sketch=1;orthogonalLoop=1;jettySize=auto;html=1;exitX=0.5;exitY=1;exitDx=0;exitDy=0;entryX=0.5;entryY=0;entryDx=0;entryDy=0;shadow=0;fontSize=16;" edge="1" parent="1" source="X01GNhUwHlDNzpuAlYnD-34" target="X01GNhUwHlDNzpuAlYnD-44">
          <mxGeometry relative="1" as="geometry" />
        </mxCell>
        <mxCell id="X01GNhUwHlDNzpuAlYnD-34" value="&lt;span style=&quot;font-size: 16px;&quot;&gt;write()&lt;/span&gt;" style="rounded=1;whiteSpace=wrap;html=1;strokeWidth=2;fillWeight=4;hachureGap=8;hachureAngle=45;fillColor=#e1d5e7;fontSize=12;strokeColor=#9673a6;shadow=0;glass=0;sketch=1;fillStyle=hachure;" vertex="1" parent="1">
          <mxGeometry x="469" y="600" width="120" height="60" as="geometry" />
        </mxCell>
        <mxCell id="X01GNhUwHlDNzpuAlYnD-42" style="edgeStyle=orthogonalEdgeStyle;rounded=1;comic=1;orthogonalLoop=1;jettySize=auto;html=1;exitX=0.5;exitY=1;exitDx=0;exitDy=0;entryX=0.5;entryY=0;entryDx=0;entryDy=0;fontSize=16;shadow=0;sketch=1;" edge="1" parent="1" source="X01GNhUwHlDNzpuAlYnD-36" target="X01GNhUwHlDNzpuAlYnD-39">
          <mxGeometry relative="1" as="geometry" />
        </mxCell>
        <mxCell id="X01GNhUwHlDNzpuAlYnD-36" value="&lt;span style=&quot;font-size: 16px;&quot;&gt;read()&lt;/span&gt;" style="rounded=1;whiteSpace=wrap;html=1;strokeWidth=2;fillWeight=4;hachureGap=8;hachureAngle=45;fillColor=#fff2cc;fontSize=12;strokeColor=#d6b656;shadow=0;glass=0;sketch=1;fillStyle=hachure;" vertex="1" parent="1">
          <mxGeometry x="239" y="600" width="120" height="60" as="geometry" />
        </mxCell>
        <mxCell id="X01GNhUwHlDNzpuAlYnD-39" value="&lt;span style=&quot;font-size: 16px;&quot;&gt;...&lt;/span&gt;" style="rounded=1;whiteSpace=wrap;html=1;strokeWidth=2;fillWeight=4;hachureGap=8;hachureAngle=45;fillColor=#f5f5f5;fontSize=12;strokeColor=#666666;shadow=0;glass=0;sketch=1;fillStyle=hachure;fontColor=#333333;" vertex="1" parent="1">
          <mxGeometry x="239" y="680" width="120" height="60" as="geometry" />
        </mxCell>
        <mxCell id="X01GNhUwHlDNzpuAlYnD-44" value="&lt;span style=&quot;font-size: 16px;&quot;&gt;...&lt;/span&gt;" style="rounded=1;whiteSpace=wrap;html=1;strokeWidth=2;fillWeight=4;hachureGap=8;hachureAngle=45;fillColor=#f5f5f5;fontSize=12;strokeColor=#666666;shadow=0;glass=0;sketch=1;fillStyle=hachure;fontColor=#333333;" vertex="1" parent="1">
          <mxGeometry x="470" y="680" width="120" height="60" as="geometry" />
        </mxCell>
      </root>
    </mxGraphModel>
  </diagram>
</mxfile>
